<?xml version="1.0" encoding="utf-8"?> 
<!DOCTYPE svg PUBLIC "-//W3C//DTD SVG 1.1//EN" "http://www.w3.org/Graphics/SVG/1.1/DTD/svg11.dtd">
<svg width="512" height="14336" xmlns="http://www.w3.org/2000/svg" xmlns:xlink="http://www.w3.org/1999/xlink" aria-labelledby="title">
	<title id="title">Icons Used by Photonic Admin Screens</title>
	<g transform="translate(0,0)"><!-- 500px -->
		<g transform="translate(50, 50) scale(15)">
			<path d="M5.926 15.765l.204.534c.396.935.961 1.775 1.683 2.497.721.721 1.561 1.287 2.497 1.683.969.41 1.998.617 3.058.617 1.06 0 2.089-.208 3.058-.618.936-.396 1.775-.962 2.497-1.683s1.288-1.561 1.684-2.497c.41-.969.618-1.998.618-3.058 0-1.06-.208-2.089-.618-3.058-.396-.935-.962-1.775-1.684-2.497-.721-.721-1.561-1.288-2.497-1.684-.969-.41-1.998-.617-3.058-.617-1.073 0-2.145.213-3.101.617-.763.323-2.056 1.155-2.812 1.935l-.004-6.46h10.86c.395-.004.395-.556.395-.737 0-.182 0-.733-.396-.738h-11.743c-.32 0-.518.266-.518.512v9.101c0 .293.366.505.706.578.664.142.817-.07.979-.295l.022-.03c.248-.369 1.023-1.149 1.031-1.157 1.21-1.21 2.828-1.876 4.555-1.876 1.72 0 3.333.667 4.543 1.876 1.214 1.214 1.883 2.823 1.883 4.53 0 1.713-.666 3.322-1.874 4.53-1.192 1.193-2.858 1.876-4.57 1.876-1.16 0-2.279-.309-3.238-.894l.004-5.533c0-.738.32-1.54.857-2.146.613-.692 1.458-1.073 2.379-1.073.893 0 1.726.338 2.347.954.616.611.956 1.424.956 2.291 0 1.849-1.454 3.297-3.31 3.297-.358 0-1.008-.158-1.035-.165-.375-.112-.534.409-.586.58-.202.66.101.791.164.81.597.185.989.22 1.503.22 2.62 0 4.752-2.133 4.752-4.754 0-2.601-2.13-4.716-4.749-4.716-1.283 0-2.487.49-3.393 1.38-.862.848-1.356 1.978-1.356 3.101v.028c-.004.14-.007 3.457-.008 4.545-.493-.545-.984-1.385-1.307-2.238-.126-.334-.412-.275-.802-.155-.172.052-.69.212-.576.587zm5.584-1.296c.001.159.147.299.234.382l.027.026c.149.147.291.221.422.221.109 0 .175-.051.199-.073l.879-.886.829.826c.077.086.16.13.257.132.132 0 .276-.079.428-.233.357-.365.179-.562.092-.657l-.839-.84.875-.881c.192-.208.023-.429-.146-.598-.246-.246-.482-.309-.634-.169l-.871.872-.88-.881c-.047-.044-.105-.068-.17-.068-.117 0-.256.08-.413.236-.271.271-.329.458-.188.607l.88.877-.875.877c-.071.073-.107.15-.106.23zm1.919-11.898c-1.407 0-2.904.284-4.004.76-.118.046-.188.141-.204.273-.014.125.02.29.104.505.068.174.25.637.6.503 1.125-.429 2.37-.666 3.504-.666 1.285 0 2.53.251 3.703.747.932.395 1.811.964 2.767 1.792.07.061.144.091.22.091.187 0 .365-.183.518-.354.255-.286.431-.524.179-.762-.913-.865-1.913-1.511-3.148-2.033-1.343-.568-2.77-.856-4.239-.856zm7.582 17.377c-.169-.169-.313-.269-.44-.305-.128-.037-.243-.009-.331.079l-.083.083c-.872.872-1.888 1.557-3.019 2.035-1.17.495-2.414.746-3.696.746s-2.525-.251-3.696-.746c-1.131-.478-2.146-1.163-3.019-2.035-.909-.909-1.594-1.924-2.035-3.019-.431-1.067-.572-1.87-.618-2.133l-.01-.057c-.059-.311-.345-.332-.756-.27-.17.026-.69.106-.641.48l.001.008c.138.866.381 1.714.723 2.523.549 1.299 1.336 2.466 2.337 3.467s2.168 1.788 3.467 2.337c1.346.57 2.774.859 4.247.859 1.472 0 2.901-.289 4.247-.858 1.298-.549 2.465-1.336 3.467-2.338l.087-.089c.11-.12.206-.33-.232-.767z"/>
		</g>
	</g>
	<g transform="translate(0,512)"><!-- Flickr -->
		<circle cx="136" cy="256" r="96" fill="#0059d4"/>
		<circle cx="376" cy="256" r="96" fill="#da1593"/>
	</g>
	<g transform="translate(0,1024)"><!-- Instagram -->
		<path d="M256 109.3c47.8 0 53.4 0.2 72.3 1 17.4 0.8 26.9 3.7 33.2 6.2 8.4 3.2 14.3 7.1 20.6 13.4 6.3 6.3 10.1 12.2 13.4 20.6 2.5 6.3 5.4 15.8 6.2 33.2 0.9 18.9 1 24.5 1 72.3s-0.2 53.4-1 72.3c-0.8 17.4-3.7 26.9-6.2 33.2 -3.2 8.4-7.1 14.3-13.4 20.6 -6.3 6.3-12.2 10.1-20.6 13.4 -6.3 2.5-15.8 5.4-33.2 6.2 -18.9 0.9-24.5 1-72.3 1s-53.4-0.2-72.3-1c-17.4-0.8-26.9-3.7-33.2-6.2 -8.4-3.2-14.3-7.1-20.6-13.4 -6.3-6.3-10.1-12.2-13.4-20.6 -2.5-6.3-5.4-15.8-6.2-33.2 -0.9-18.9-1-24.5-1-72.3s0.2-53.4 1-72.3c0.8-17.4 3.7-26.9 6.2-33.2 3.2-8.4 7.1-14.3 13.4-20.6 6.3-6.3 12.2-10.1 20.6-13.4 6.3-2.5 15.8-5.4 33.2-6.2C202.6 109.5 208.2 109.3 256 109.3M256 77.1c-48.6 0-54.7 0.2-73.8 1.1 -19 0.9-32.1 3.9-43.4 8.3 -11.8 4.6-21.7 10.7-31.7 20.6 -9.9 9.9-16.1 19.9-20.6 31.7 -4.4 11.4-7.4 24.4-8.3 43.4 -0.9 19.1-1.1 25.2-1.1 73.8 0 48.6 0.2 54.7 1.1 73.8 0.9 19 3.9 32.1 8.3 43.4 4.6 11.8 10.7 21.7 20.6 31.7 9.9 9.9 19.9 16.1 31.7 20.6 11.4 4.4 24.4 7.4 43.4 8.3 19.1 0.9 25.2 1.1 73.8 1.1s54.7-0.2 73.8-1.1c19-0.9 32.1-3.9 43.4-8.3 11.8-4.6 21.7-10.7 31.7-20.6 9.9-9.9 16.1-19.9 20.6-31.7 4.4-11.4 7.4-24.4 8.3-43.4 0.9-19.1 1.1-25.2 1.1-73.8s-0.2-54.7-1.1-73.8c-0.9-19-3.9-32.1-8.3-43.4 -4.6-11.8-10.7-21.7-20.6-31.7 -9.9-9.9-19.9-16.1-31.7-20.6 -11.4-4.4-24.4-7.4-43.4-8.3C310.7 77.3 304.6 77.1 256 77.1L256 77.1z"/>
		<path d="M256 164.1c-50.7 0-91.9 41.1-91.9 91.9s41.1 91.9 91.9 91.9 91.9-41.1 91.9-91.9S306.7 164.1 256 164.1zM256 315.6c-32.9 0-59.6-26.7-59.6-59.6s26.7-59.6 59.6-59.6 59.6 26.7 59.6 59.6S288.9 315.6 256 315.6z"/>
		<circle cx="351.5" cy="160.5" r="21.5"/>
	</g>
	<g transform="translate(0,1536)"><!-- SmugMug -->
		<g transform="translate(50,50) scale(0.9)">
			<path d="M173.936,32.259c0,17.831-18.62,32.268-41.553,32.268c-22.965,0-41.593-14.438-41.593-32.268   C90.79,14.447,109.418,0,132.383,0C155.316,0,173.936,14.447,173.936,32.259z M319.444,0c-22.935,0-41.575,14.447-41.575,32.259   c0,17.831,18.636,32.268,41.575,32.268c22.962,0,41.578-14.438,41.578-32.268C361.022,14.447,342.406,0,319.444,0z M430.119,164   c0,31.762-71.075,266.119-253.808,266.119c-182.723,0-203.051-171.804-152.277-277.707c10.151-21.2,20.302-23.356,20.302-23.356   h355.316C399.652,129.055,430.119,132.2,430.119,164z M387.042,172.071H61.167c-21.52,43.012-30.308,111.996-1.481,160.767   c26.635,44.953,78.11,54.344,116.625,54.344C314.87,387.182,376.732,215.083,387.042,172.071z" stroke="OliveDrab" fill="OliveDrab"/>
		</g>
	</g>
	<g transform="translate(0,2048)"><!-- Zenfolio -->
		<g transform="translate(-225,-100) scale(0.13)">
			<path d="M4577 3165 c-240 -40 -350 -81 -804 -306 -210 -103 -422 -204 -470 -224 -48 -20 -101 -42 -118 -50 -56 -25 -260 -84 -335 -96 -41 -7 -118 -13 -170 -13 -81 0 -101 4 -135 23 -47 27 -55 37 -55 72 0 61 83 110 208 125 72 8 164 -17 275 -73 45 -22 73 -31 79 -25 6 6 -20 26 -74 55 -209 114 -331 139 -490 98 -142 -36 -245 -108 -292 -203 -49 -97 -25 -200 62 -265 56 -43 109 -56 213 -55 189 1 370 67 704 257 191 109 472 245 605 294 200 73 482 103 625 66 128 -33 228 -104 268 -188 22 -46 24 -131 4 -179 -90 -215 -492 -278 -992 -154 -77 19 -201 56 -275 81 -162 56 -176 60 -183 48 -4 -6 47 -37 111 -71 197 -102 382 -173 581 -222 201 -49 252 -55 491 -55 196 1 239 4 329 23 430 94 688 278 734 524 18 98 -21 227 -91 303 -83 91 -224 168 -362 200 -102 23 -329 28 -443 10z" fill="Chocolate"/>
		</g>
	</g>
	<g transform="translate(0,2560)"><!-- WordPress -->
		<path d="M453.499 256.676c0-20.459-3.164-40.263-8.899-58.819l-88.177 228.833c58.082-34.365 97.075-97.618 97.075-170.014z" />
		<path d="M193.628 443.884c19.63 6.594 40.642 10.137 62.526 10.137 22.866 0 44.769-3.87 65.188-11.029l-60.242-156.18-67.471 157.072z" />
		<path d="M66.837 200.888c-5.212 17.684-8.059 36.403-8.059 55.787 0 73.954 40.714 138.393 100.894 172.155l-92.231-226.703-0.604-1.239z" />
		<path d="M167.383 188.16l-8.478-0.379c-18.494-0.307-16.446 18.893-16.446 18.893l65.618 164.577 44.114-105.37-24.627-62.7c-9.861-16.578-33.925-16.404-33.925-16.404v-8.734h137.974l-0.205 9.687-14.356 0.891c-17.879 0-14.264 17.008-14.264 17.008l59.873 159.939 17.162-44.288c30.443-69.017 11.663-120.094 11.663-120.094-30.485-62.72 8.038-71.721 8.038-71.721 2.437-0.348 4.721-0.542 6.963-0.645-36.199-42.537-90.122-69.519-150.323-69.519-81.398 0-151.316 49.326-181.474 119.706l92.365-0.952 0.327 10.107z" />
		<path d="M477.839 256.021c0 122.306-99.522 221.839-221.798 221.839-122.338 0-221.86-99.533-221.86-221.839 0-122.338 99.522-221.829 221.86-221.829 122.276 0.010 221.798 99.492 221.798 221.829zM256.041 23.972c-127.939 0-232.048 104.11-232.048 232.059s104.11 232.007 232.048 232.007c127.918 0 231.957-104.059 231.957-232.007 0-127.949-104.038-232.059-231.957-232.059z" />
	</g>
	<g transform="translate(0,3072)"><!-- Picasa -->
		<g transform="translate(50,50) scale(4)">
			<path fill="#e9eaeb" d="m51.781 0c-28.597 0-51.781 23.184-51.781 51.781s23.184 51.781 51.781 51.781 51.781-23.184 51.781-51.781-23.181-51.781-51.779-51.781zm0.28125 31.625 9.5938 7.0312 9.5938 7.0625-3.7188 11.344-3.75 11.281l-11.906-0.031-11.906-0.062-3.657-11.344-3.593-11.344 9.6562-7 9.6875-6.9375z"/>
			<path fill="#0dab62" d="m46.031 71.906c-2.5812 0-3.9361 1.7885-2.9688 4.5938l6.6562 19.344c0.68102 0.03121 1.3738 0.0625 2.0625 0.0625 17.121 0 31.963-9.7503 39.281-24h-45.031z"/>
			<path fill="#ffd34e" d="m69.026 63.672c-0.82729 2.445 0.43259 4.3017 3.3999 4.2845l20.457-0.10521c0.24784-0.63509 0.49951-1.2813 0.72026-1.9337 5.4875-16.218 1.0085-33.401-10.144-44.901l-14.433 42.656z"/>
			<path fill="#448afd" d="m30.847 52.424c-0.787-2.458-2.904-3.203-5.28-1.426l-16.391 12.241c0.17806 0.65807 0.35962 1.3273 0.56975 1.9832 5.2242 16.305 19.037 27.464 34.841 30.086l-13.74-42.884z"/>
			<path fill="#9b479f" d="m44.32 32.185c2.0659-1.5475 2.078-3.7912-0.378-5.4565l-16.925-11.49c-0.56377 0.38331-1.137 0.77358-1.6882 1.1865-13.703 10.265-19.736 26.966-17.05 42.759l36.041-26.998z"/>
			<path fill="#e04a3f" d="m68.282 38.84c2.0889 1.5162 4.236 0.86467 5.101-1.9738l5.976-19.565c-0.533-0.425-1.075-0.857-1.632-1.262-13.856-10.057-31.595-10.884-45.888-3.651l36.443 26.452z"/>
		</g>
	</g>
	<g transform="translate(0,3584) scale(0.8)"><!-- Google Photos -->
		<g transform="translate(-50,50)">
			<path fill="#DD4B39" stroke="#DD4B39" stroke-width=".094" d="M391.6 36.6c1.4.8 2.6 2 3.7 3.2 41.3 41.5 82.7 83 123.899 124.6-26 25.6-51.6 51.6-77.399 77.3-9.7 9.8-19.601 19.4-29.2 29.4-7.2-17.4-14.1-34.9-21-52.4 0-18.2.1-36.4 0-54.7-.1-42.4-.2-84.9 0-127.4z"/>
			<path fill="#EF851C" stroke="#EF851C" stroke-width=".094" d="M263.5 164h128.1c.1 18.3 0 36.5 0 54.7-7.1 17.2-14 34.5-20.8 51.9-2.2-1.2-3.8-3-5.5-4.8L263.9 164.4l-.4-.4z"/>
			<path fill="#7E3794" stroke="#7E3794" stroke-width=".094" d="M519.199 164.4l.4-.3c-.1 42.6-.1 85.3 0 127.9h-55.1c-17.2-7.2-34.601-13.8-51.9-20.9 9.6-10 19.5-19.6 29.2-29.4 25.801-25.7 51.4-51.7 77.4-77.3z"/>
			<path fill="#FFBB1B" stroke="#FFBB1B" stroke-width=".094" d="M242.6 185.5c7.2-6.9 13.9-14.3 21.3-21.1l101.4 101.4c1.7 1.8 3.3 3.6 5.5 4.8-2.3 1.7-5.2 2.3-7.8 3.5-14.801 6-29.801 11.6-44.5 18-18.301-.2-36.601-.1-54.9-.1-42.6-.1-85.2.2-127.8-.1 35.5-35.6 71.2-71 106.8-106.4z"/>
			<path fill="#1A8763" stroke="#1A8763" stroke-width=".094" d="M263.6 292c18.3 0 36.6-.1 54.9.1 17.3 7.1 34.6 13.8 51.899 20.8C342 341.7 313.3 370.1 284.8 398.8c-7.2 6.8-13.7 14.3-21.3 20.7 0-42.5-.1-85 .1-127.5z"/>
			<path fill="#427FED" stroke="#427FED" stroke-width=".094" d="M464.5 292h55.1c42.5.1 85.1-.1 127.6.1-27.3 27.7-55 55.1-82.399 82.6-15.2 15.1-30.2 30.399-45.4 45.3-34-34.4-68.5-68.4-102.6-102.8-1.4-1.5-2.9-2.8-4.601-3.8 2.9-1.801 6.101-2.7 9.2-4 14.4-5.8 28.799-11.4 43.1-17.4z"/>
			<path fill="#65B045" stroke="#65B045" stroke-width=".094" d="M370.4 312.9c7.3 17.399 13.9 35 21.2 52.399-.1 18.2 0 36.5-.1 54.7v88c-.2 13.1.3 26.2-.2 39.2-2.101-1-3.4-2.9-5.101-4.5C345.3 501.6 304.5 460.5 263.5 419.5c7.6-6.4 14.1-13.9 21.3-20.7 28.5-28.7 57.2-57.1 85.6-85.9z"/>
			<path fill="#43459D" stroke="#43459D" stroke-width=".094" d="M412.199 313.4c1.7 1 3.2 2.3 4.601 3.8 34.1 34.4 68.6 68.4 102.6 102.8-42.7-.1-85.3.1-127.899 0 .1-18.2 0-36.5.1-54.7 6.699-17.3 13.899-34.5 20.598-51.9z"/>
		</g>
	</g>
	<g transform="translate(0,4096)"><!-- slideshow -->
		<g transform="translate(32, 0) scale(4)" style="stroke: #aaa; fill: #aaa;">
			<path d="M106.7,28.2H0.7H0v78.7h108V28.2H106.7z M101.5,34.7v65.7h-95V34.7H101.5z"/>
			<polygon points="39.9,76.5 27.7,67.6 39.9,58.5 39.9,50.8 19.5,64.9 19.5,70.2 39.9,84.3 	"/>
			<polygon points="88.5,64.9 68.1,50.8 68.1,58.5 80.3,67.6 68.1,76.5 68.1,84.3 88.5,70.2 	"/>
		</g>
	</g>
	<g transform="translate(0,4608)"><!-- square grid -->
		<g transform="translate(68, 68)" style="stroke: #aaa; fill: #aaa;">
			<rect x="0" y="0" width="120" height="120"/>
			<rect x="128" y="0" width="120" height="120"/>
			<rect x="256" y="0" width="120" height="120"/>
			<rect x="0" y="128" width="120" height="120"/>
			<rect x="128" y="128" width="120" height="120"/>
			<rect x="256" y="128" width="120" height="120"/>
			<rect x="0" y="256" width="120" height="120"/>
			<rect x="128" y="256" width="120" height="120"/>
		</g>
	</g>
	<g transform="translate(0,5120)"><!-- circular grid -->
		<g transform="translate(68, 68)" style="stroke: #aaa; fill: #aaa;">
			<circle cx="60" cy="60" r="60"/>
			<circle cx="188" cy="60" r="60"/>
			<circle cx="316" cy="60" r="60"/>
			<circle cx="60" cy="188" r="60"/>
			<circle cx="188" cy="188" r="60"/>
			<circle cx="316" cy="188" r="60"/>
			<circle cx="60" cy="316" r="60"/>
			<circle cx="188" cy="316" r="60"/>
		</g>
	</g>
	<g transform="translate(0,5632)"><!-- Justified grid -->
		<g transform="translate(68, 68)" style="stroke: #aaa; fill: #aaa;">
			<rect x="0" y="0" width="120" height="80"/>
			<rect x="128" y="0" width="200" height="80"/>
			<rect x="336" y="0" width="40" height="80"/>
			<rect x="0" y="88" width="90" height="160"/>
			<rect x="98" y="88" width="180" height="160"/>
			<rect x="286" y="88" width="90" height="160"/>
			<rect x="0" y="256" width="160" height="120"/>
			<rect x="168" y="256" width="208" height="120"/>
		</g>
	</g>
	<g transform="translate(0,6144)"><!-- Masonry -->
		<g transform="translate(68, 68)" style="stroke: #aaa; fill: #aaa;">
			<rect x="0" y="0" width="120" height="80"/>
			<rect x="0" y="88" width="120" height="160"/>
			<rect x="0" y="256" width="120" height="80"/>
			<rect x="128" y="0" width="120" height="140"/>
			<rect x="128" y="88" width="120" height="140"/>
			<rect x="128" y="236" width="120" height="120"/>
			<rect x="256" y="0" width="120" height="100"/>
			<rect x="256" y="108" width="120" height="170"/>
		</g>
	</g>
	<g transform="translate(0,6656)"><!-- Mosaic -->
		<g transform="translate(68, 68)" style="stroke: #aaa; fill: #aaa;">
			<rect x="0" y="0" width="180" height="160"/>
			<rect x="188" y="0" width="188" height="90"/>
			<rect x="188" y="98" width="188" height="62"/>
			<rect x="0" y="168" width="160" height="120"/>
			<rect x="0" y="296" width="60" height="64"/>
			<rect x="68" y="296" width="90" height="64"/>
			<rect x="168" y="168" width="208" height="60"/>
			<rect x="168" y="236" width="208" height="124"/>
		</g>
	</g>
	<g transform="translate(0,7168)"><!-- slideshow strip-below -->
		<g transform="translate(32, 0) scale(4, 3)" style="stroke: #aaa; fill: #aaa;">
			<g>
				<path d="M106.7,28.2H0.7H0v78.7h108V28.2H106.7z M101.5,34.7v65.7h-95V34.7H101.5z"/>
				<polygon points="39.9,76.5 27.7,67.6 39.9,58.5 39.9,50.8 19.5,64.9 19.5,70.2 39.9,84.3 	"/>
				<polygon points="88.5,64.9 68.1,50.8 68.1,58.5 80.3,67.6 68.1,76.5 68.1,84.3 88.5,70.2 	"/>
			</g>
			<rect x="0" y="110" width="25" height="20"/>
			<rect x="28" y="110" width="25" height="20"/>
			<rect x="56" y="110" width="25" height="20"/>
			<rect x="84" y="110" width="24" height="20"/>
		</g>
	</g>
	<g transform="translate(0,7680)"><!-- slideshow strip-above -->
		<g transform="translate(32, 64) scale(4, 3)" style="stroke: #aaa; fill: #aaa;">
			<rect x="0" y="5" width="25" height="20"/>
			<rect x="28" y="5" width="25" height="20"/>
			<rect x="56" y="5" width="25" height="20"/>
			<rect x="84" y="5" width="24" height="20"/>
			<g>
				<path d="M106.7,28.2H0.7H0v78.7h108V28.2H106.7z M101.5,34.7v65.7h-95V34.7H101.5z"/>
				<polygon points="39.9,76.5 27.7,67.6 39.9,58.5 39.9,50.8 19.5,64.9 19.5,70.2 39.9,84.3 	"/>
				<polygon points="88.5,64.9 68.1,50.8 68.1,58.5 80.3,67.6 68.1,76.5 68.1,84.3 88.5,70.2 	"/>
			</g>
		</g>
	</g>
	<g transform="translate(0,8192)"><!-- slideshow strip-right -->
		<g transform="translate(32, 0) scale(3.2, 4)" style="stroke: #aaa; fill: #aaa;">
			<g>
				<path d="M106.7,28.2H0.7H0v78.7h108V28.2H106.7z M101.5,34.7v65.7h-95V34.7H101.5z"/>
				<polygon points="39.9,76.5 27.7,67.6 39.9,58.5 39.9,50.8 19.5,64.9 19.5,70.2 39.9,84.3 	"/>
				<polygon points="88.5,64.9 68.1,50.8 68.1,58.5 80.3,67.6 68.1,76.5 68.1,84.3 88.5,70.2 	"/>
			</g>
			<rect x="111" y="28.2" width="25" height="18"/>
			<rect x="111" y="48.5" width="25" height="18"/>
			<rect x="111" y="69" width="25" height="18"/>
			<rect x="111" y="89.5" width="25" height="17"/>
		</g>
	</g>
	<g transform="translate(0,8704)"><!-- slideshow buttons -->
		<g transform="translate(32, 0) scale(4, 3)" style="stroke: #aaa; fill: #aaa;">
			<g>
				<path d="M106.7,28.2H0.7H0v78.7h108V28.2H106.7z M101.5,34.7v65.7h-95V34.7H101.5z"/>
				<polygon points="39.9,76.5 27.7,67.6 39.9,58.5 39.9,50.8 19.5,64.9 19.5,70.2 39.9,84.3 	"/>
				<polygon points="88.5,64.9 68.1,50.8 68.1,58.5 80.3,67.6 68.1,76.5 68.1,84.3 88.5,70.2 	"/>
			</g>
		</g>
		<g transform="translate(200, 340)" style="stroke: #aaa; fill: #aaa;">
			<circle cx="0" cy="0" r="8"/>
			<circle cx="30" cy="0" r="8"/>
			<circle cx="60" cy="0" r="8"/>
			<circle cx="90" cy="0" r="8"/>
		</g>
	</g>
	<g transform="translate(0,9216)"><!-- Settings -->
		<circle style="fill:#324A5E;" cx="256" cy="256" r="256"/>
		<path style="fill:#E6E9EE;" d="M379.6,229.2c14-14,20.8-32,20.8-50.4c0-4.8-0.4-9.6-1.6-14.4L350,213.2L314,194l-19.2-36l48.8-48.8
	c-4.8-1.2-9.6-1.6-14.4-1.6c-18.4,0-36.4,6.8-50.4,20.8c-20.8,20.8-26,51.2-15.6,76.8l-138.8,114c-20.8,17.2-22.4,48.8-3.2,68l0,0
	c19.2,19.2,50.8,17.6,68-3.2l114-138.8c8.4,3.2,17.6,5.2,26.4,5.2C347.6,250,365.6,243.2,379.6,229.2z M136.4,371.6
	c-8.8-8.8-8.8-23.2,0-32s23.2-8.8,32,0s8.8,23.2,0,32C159.6,380.4,145.2,380.4,136.4,371.6z"/>
		<polygon style="fill:#FFFFFF;" points="136,105.2 117.6,101.6 101.6,117.6 105.2,136 141.6,153.2 248.8,260.8 260.8,248.8
	153.2,141.6 "/>
		<path style="fill:#E6E9EE;" d="M402.8,358L358,402.8c-4.4,4.4-12,4.4-16.4,0L224.4,285.6c-4.4-4.4-4.4-12,0-16.4l44.8-44.8
	c4.4-4.4,12-4.4,16.4,0l117.2,117.2C407.2,346,407.2,353.6,402.8,358z"/>
		<path style="fill:#84DBFF;" d="M285.6,224.4l117.2,117.2c4.4,4.4,4.4,11.6,0,16.4L358,402.8c-4.4,4.4-11.6,4.4-16.4,0L224.4,285.6
	c-4.4-4.4-4.4-11.6,0-16.4l44.8-44.8C274,220,281.2,220,285.6,224.4z"/>
		<g>
			<path style="fill:#54C0EB;" d="M376.8,356.4L376.8,356.4c-3.2,3.2-8.4,3.2-11.6,0l-94-94c-3.2-3.2-3.2-8.4,0-11.6l0,0
		c3.2-3.2,8.4-3.2,11.6,0l94,94C380,347.6,380,353.2,376.8,356.4z"/>
			<path style="fill:#54C0EB;" d="M397.2,336c-3.2,3.2-8.4,3.2-11.6,0l-94-94c-3.2-3.2-3.2-8.4,0-11.6L397.2,336z"/>
			<path style="fill:#54C0EB;" d="M356.4,376.8L356.4,376.8c-3.2,3.2-8.4,3.2-11.6,0l-94-94c-3.2-3.2-3.2-8.4,0-11.6l0,0
		c3.2-3.2,8.4-3.2,11.6,0l94,94C359.6,368,359.6,373.6,356.4,376.8z"/>
			<path style="fill:#54C0EB;" d="M242,291.6l94,94c3.2,3.2,3.2,8.4,0,11.6L230.4,291.6c1.6-1.6,3.6-2.4,6-2.4
		C238.4,289.2,240.4,290,242,291.6z"/>
		</g>
	</g>
	<g transform="translate(0,9728)"><!-- Telephone -->
		<g transform="translate(57,46) scale(10)">
			<path style="fill:#3397cb;" d="M36.64,25.854c-4.349-3.164-10.066-2.716-12.771,1c-0.197,0.271-0.367,0.555-0.522,0.845
		c-3.921-2.212-7.093-5.598-9.034-9.681c2.681-1.938,4.187-5.653,3.564-9.607C17.04,3.099,12.68-0.628,8.139,0.088
		C2.633,0.956,0.837,6.836,1.122,11.535c0.495,8.144,4.995,16.237,11.017,21.619c4.905,4.383,12.429,8.514,19.136,8.734
		C40.796,42.201,44.261,31.399,36.64,25.854z"/>
		</g>
	</g>
	<g transform="translate(0,10240)"><!-- RSS -->
		<g transform="translate(70,70) scale(1.2)" style="fill:#3397cb;">
			<path d="M90.244,264.828C90.244,240.11,70.139,220,45.427,220c-24.715,0-44.822,20.11-44.822,44.828
		c0,24.714,20.107,44.82,44.822,44.82C70.139,309.648,90.244,289.542,90.244,264.828z"/>
			<path d="M5.648,169.43c35.961,0,69.782,14.066,95.231,39.605c25.45,25.583,39.467,59.648,39.467,95.92
		c0,2.762,2.238,5,5,5h57.486c2.762,0,5-2.238,5-5c0-111.952-90.699-203.031-202.185-203.031c-2.762,0-5,2.238-5,5v57.505
		C0.648,167.191,2.887,169.43,5.648,169.43z"/>
			<path d="M5.726,0c-2.762,0-5,2.238-5,5v57.495c0,2.762,2.238,5,5,5c130.24,0,236.199,106.544,236.199,237.505
		c0,2.762,2.238,5,5,5h57.471c2.762,0,5-2.238,5-5C309.396,136.822,173.17,0,5.726,0z"/>
		</g>
	</g>
	<g transform="translate(0,10752)"><!-- Coffee -->
		<g>
			<g>
				<path style="fill:none;" d="M369.376,264.252c10.755,0,16.063-1.052,18.927-3.757c2.549-2.407,6.828-9.752,6.828-31.885
				c0-22.135-4.279-29.479-6.828-31.886c-2.862-2.703-8.168-3.755-18.925-3.755c-2.437,0-4.943,0.046-7.508,0.093
				c-0.42,0.008-0.851,0.014-1.274,0.021v71.055c0.422,0.008,0.853,0.014,1.271,0.021
				C364.432,264.206,366.938,264.252,369.376,264.252z"/>
				<path style="fill:none;" d="M360.591,257.709c-0.004,2.191-0.075,4.329-0.194,6.426c0.065,0.001,0.132,0.002,0.197,0.003
				L360.591,257.709z"/>
				<path style="fill:#157cb8;" d="M361.87,193.062c2.564-0.047,5.071-0.093,7.508-0.093c10.757,0,16.063,1.052,18.925,3.755
				c2.549,2.407,6.828,9.75,6.828,31.886c0,22.133-4.279,29.478-6.828,31.885c-2.864,2.705-8.172,3.757-18.927,3.757
				c-2.438,0-4.944-0.046-7.509-0.093c-0.419-0.008-0.85-0.014-1.271-0.021v6.713l-0.002-6.713
				c-0.065-0.001-0.132-0.002-0.197-0.003c-0.662,11.574-3.065,21.73-6.961,30.588c2.673,0.004,5.303,0.051,7.875,0.098
				c2.754,0.049,5.446,0.097,8.065,0.097c29.306,0,56.42-8.032,56.42-66.309c0-58.274-27.114-66.307-56.418-66.307
				c-2.616,0-5.312,0.048-8.067,0.097c-0.235,0.004-0.478,0.008-0.715,0.012v30.67C361.02,193.075,361.45,193.069,361.87,193.062z"
				/>
				<path style="fill:#3397cb;" d="M313.809,333.481c17.897-8.335,31.783-20.921,39.627-38.758
				c3.896-8.858,6.299-19.014,6.961-30.588c0.119-2.097,0.19-4.234,0.194-6.426l0.003,6.429l0.002,6.713v-6.713v-71.055v-30.67
				v-0.896c0-24.221-3.795-27.429-28.063-27.429H148.441c-24.268,0-28.062,3.208-28.062,27.429l0.006,96.193
				c0,39.298,19.589,63.176,48.97,76.762c4.23,1.957,3.623,5.323,3.623,5.323v3.679h135.017c0-1.848,0-3.325,0-4.09
				C307.996,335.77,311.615,334.755,313.809,333.481z"/>
				<path style="fill:#157cb8;" d="M100.21,343.473c-8.71,0-15.773,7.063-15.773,15.774s7.063,15.772,15.773,15.772h293.366
				c8.711,0,15.774-7.061,15.774-15.772s-7.063-15.774-15.774-15.774h-85.58H172.979H100.21z"/>
			</g>
		</g>
	</g>
	<g transform="translate(0,11264)"><!-- Star -->
		<g transform="translate(40,50) scale(9)">
			<path style="fill:#3397cb;" d="M26.285,2.486l5.407,10.956c0.376,0.762,1.103,1.29,1.944,1.412l12.091,1.757
	c2.118,0.308,2.963,2.91,1.431,4.403l-8.749,8.528c-0.608,0.593-0.886,1.448-0.742,2.285l2.065,12.042
	c0.362,2.109-1.852,3.717-3.746,2.722l-10.814-5.685c-0.752-0.395-1.651-0.395-2.403,0l-10.814,5.685
	c-1.894,0.996-4.108-0.613-3.746-2.722l2.065-12.042c0.144-0.837-0.134-1.692-0.742-2.285l-8.749-8.528
	c-1.532-1.494-0.687-4.096,1.431-4.403l12.091-1.757c0.841-0.122,1.568-0.65,1.944-1.412l5.407-10.956
	C22.602,0.567,25.338,0.567,26.285,2.486z"/>
		</g>
	</g>
	<g transform="translate(0,11776)"><!-- Photonic -->
		<mask id="gap" x="0" y="0" width="512" height="512">
			<circle cx="256" cy="192" r="128" fill="white"/>
			<rect width="16" height="128" x="192" y="192" fill="black"/>
			<circle cx="256" cy="192" r="64" fill="black"/>
		</mask>
		<g>
			<circle cx="256" cy="192" r="128" fill="#0085ba" style="mask: url(#gap)"/>
			<rect width="64" height="256" x="128" y="192" fill="#0085ba"/>
			<circle cx="256" cy="192" r="64" fill="white" style="mask: url(#gap)"/>
		</g>

		<g transform="translate(140, 69) scale(0.24)">
			<path transform="matrix(1.1729 0 0 1.2563 -24.496 40.647)" d="m646.5 374.72a213.14 199 0 1 1 -426.28 0 213.14 199 0 1 1 426.28 0z" fill="none" stroke="#c33" stroke-width="14.828"/>
			<path d="m483.8 281.4c-78.221 0-147.32 39.052-188.88 98.719l68.844 119.28 125.84-217.94c-1.9315-0.0479-3.8695-0.0625-5.8125-0.0625zm19.25 0.8125-68.875 119.28h251.69c-36.093-66.22-103.78-112.73-182.81-119.28zm-215.5 109.16c-21.422 34.943-33.75 76.041-33.75 120.03 0 35.029 7.837 68.221 21.844 97.938h137.75l-125.84-217.97zm266.63 22.125 125.84 217.94c21.422-34.943 33.781-76.041 33.781-120.03 0-35.015-7.8481-68.2-21.844-97.906h-137.78zm49.594 109.94-125.81 217.91c1.9418 0.0484 3.8903 0.0625 5.8438 0.0625 78.209 0 147.29-39.036 188.84-98.688l-68.875-119.28zm-322.03 97.906c36.098 66.2 103.76 112.7 182.78 119.25l68.844-119.25h-251.63z" fill-rule="evenodd" fill="#0085ba"/>
		</g>
	</g>
	<g transform="translate(0, 12288)"><!-- Search -->
		<g transform="translate(100,100) scale(24)">
			<g stroke-width="2" stroke="#6c6c6c" fill="none"><path d="M11.29 11.71l-4-4"/><circle cx="5" cy="5" r="4"/></g>
		</g>
	</g>
</svg>
