<?xml version="1.0" encoding="utf-8"?> 
<!DOCTYPE svg PUBLIC "-//W3C//DTD SVG 1.1//EN" "http://www.w3.org/Graphics/SVG/1.1/DTD/svg11.dtd">
<svg width="512" height="14336" xmlns="http://www.w3.org/2000/svg" xmlns:xlink="http://www.w3.org/1999/xlink">
	<g><!-- Facebook -->
		<path d="M211.9 197.4h-36.7v59.9h36.7V433.1h70.5V256.5h49.2l5.2-59.1h-54.4c0 0 0-22.1 0-33.7 0-13.9 2.8-19.5 16.3-19.5 10.9 0 38.2 0 38.2 0V82.9c0 0-40.2 0-48.8 0 -52.5 0-76.1 23.1-76.1 67.3C211.9 188.8 211.9 197.4 211.9 197.4z"/>
	</g>
	<g transform="translate(0,512)"><!-- Google+ -->
		<path d="M179.7 237.6L179.7 284.2 256.7 284.2C253.6 304.2 233.4 342.9 179.7 342.9 133.4 342.9 95.6 304.4 95.6 257 95.6 209.6 133.4 171.1 179.7 171.1 206.1 171.1 223.7 182.4 233.8 192.1L270.6 156.6C247 134.4 216.4 121 179.7 121 104.7 121 44 181.8 44 257 44 332.2 104.7 393 179.7 393 258 393 310 337.8 310 260.1 310 251.2 309 244.4 307.9 237.6L179.7 237.6 179.7 237.6ZM468 236.7L429.3 236.7 429.3 198 390.7 198 390.7 236.7 352 236.7 352 275.3 390.7 275.3 390.7 314 429.3 314 429.3 275.3 468 275.3"/>
	</g>
	<g transform="translate(0,1024)"><!-- Pinterest -->
		<path d="M266.6 76.5c-100.2 0-150.7 71.8-150.7 131.7 0 36.3 13.7 68.5 43.2 80.6 4.8 2 9.2 0.1 10.6-5.3 1-3.7 3.3-13 4.3-16.9 1.4-5.3 0.9-7.1-3-11.8 -8.5-10-13.9-23-13.9-41.3 0-53.3 39.9-101 103.8-101 56.6 0 87.7 34.6 87.7 80.8 0 60.8-26.9 112.1-66.8 112.1 -22.1 0-38.6-18.2-33.3-40.6 6.3-26.7 18.6-55.5 18.6-74.8 0-17.3-9.3-31.7-28.4-31.7 -22.5 0-40.7 23.3-40.7 54.6 0 19.9 6.7 33.4 6.7 33.4s-23.1 97.8-27.1 114.9c-8.1 34.1-1.2 75.9-0.6 80.1 0.3 2.5 3.6 3.1 5 1.2 2.1-2.7 28.9-35.9 38.1-69 2.6-9.4 14.8-58 14.8-58 7.3 14 28.7 26.3 51.5 26.3 67.8 0 113.8-61.8 113.8-144.5C400.1 134.7 347.1 76.5 266.6 76.5z"/>
	</g>
	<g transform="translate(0,1536)"><!-- StumbleUpon -->
		<path d="M274.5 216.4l23.1 12.8 36.5-12.3v-24.7c0-42.7-35.7-75.9-78.1-75.9 -42.3 0-78.1 31.1-78.1 75.4 0 44.4 0 113.1 0 113.1 0 10.2-8.3 18.5-18.5 18.5 -10.2 0-18.5-8.3-18.5-18.5v-47.9H80.9c0 0 0 48 0 48.6 0 43.2 35 78.3 78.3 78.3 42.9 0 77.7-34.4 78.3-77.2v-111.7c0-10.2 8.3-18.5 18.5-18.5 10.2 0 18.5 8.3 18.5 18.5L274.5 216.4 274.5 216.4zM371.2 256.9v50.2c0 10.2-8.3 18.5-18.5 18.5 -10.2 0-18.5-8.3-18.5-18.5v-49.2l-36.5 12.4 -23.1-12.8v48.8c0.4 42.9 35.3 77.6 78.3 77.6 43.2 0 78.3-35 78.3-78.3 0-0.6 0-48.6 0-48.6L371.2 256.9 371.2 256.9z"/>
	</g>
	<g transform="translate(0,2048)"><!-- Twitter -->
		<path d="M419.6 168.6c-11.7 5.2-24.2 8.7-37.4 10.2 13.4-8.1 23.8-20.8 28.6-36 -12.6 7.5-26.5 12.9-41.3 15.8 -11.9-12.6-28.8-20.6-47.5-20.6 -42 0-72.9 39.2-63.4 79.9 -54.1-2.7-102.1-28.6-134.2-68 -17 29.2-8.8 67.5 20.1 86.9 -10.7-0.3-20.7-3.3-29.5-8.1 -0.7 30.2 20.9 58.4 52.2 64.6 -9.2 2.5-19.2 3.1-29.4 1.1 8.3 25.9 32.3 44.7 60.8 45.2 -27.4 21.4-61.8 31-96.4 27 28.8 18.5 63 29.2 99.8 29.2 120.8 0 189.1-102.1 185-193.6C399.9 193.1 410.9 181.7 419.6 168.6z"/>
	</g>
	<g transform="translate(0,2560)"><!-- Plus -->
		<mask id="plus" x="0" y="0" width="512" height="512">
			<circle cx="256" cy="256" r="256" fill="white"/>
			<line x1="248" y1="120" x2="248" y2="392" stroke-width="48" stroke="black"/>
			<line x1="120" y1="248" x2="392" y2="248" stroke-width="48" stroke="black"/>
		</mask>
		<rect width="512" height="512" fill="#444" mask="url(#plus)"/>
	</g>
	<g transform="translate(0,3072)"><!-- Down -->
		<mask id="down" x="0" y="0" width="512" height="512">
			<circle cx="256" cy="256" r="256" fill="white"/>
			<g transform="scale(16)">
				<path d="M16.003 18.626l7.081-7.081L25 13.46l-8.997 8.998-9.003-9 1.917-1.916z" stroke="black"/>
			</g>
		</mask>
		<rect width="512" height="512" fill="#444" mask="url(#down)"/>
	</g>
	<g transform="translate(0,3584)"><!-- Up -->
		<mask id="up" x="0" y="0" width="512" height="512">
			<circle cx="256" cy="256" r="256" fill="white"/>
			<g transform="scale(16)">
				<path d="M15.997 13.374l-7.081 7.081L7 18.54l8.997-8.998 9.003 9-1.916 1.916z"/>
			</g>
		</mask>
		<rect width="512" height="512" fill="#444" mask="url(#up)"/>
	</g>
	<g transform="translate(0,4096)"><!-- error -->
		<g transform="translate(64,64) scale(6)">
			<g id="error">
				<g>
					<g>
						<path fill="Chocolate" d="M32,0c17.7,0,32,14.3,32,32S49.7,64,32,64S0,49.7,0,32S14.3,0,32,0z"/>
					</g>
				</g>
			</g>
			<g>
				<g>
					<g>
						<polygon fill="#FFFFFF" points="29,16 35,16 34,36 30,36"/>
					</g>
				</g>
				<g>
					<g>
						<circle fill="#FFFFFF" cx="32" cy="44" r="4"/>
					</g>
				</g>
			</g>
		</g>
	</g>
	<g transform="translate(0,4608)"><!-- cart -->
		<g transform="scale(4)">
			<path d="m 84.67568,60.05406 -54.86487,0 L 19,22.21622 l 77.02703,0" id="path2993" style="fill:none;stroke:#aaa;stroke-width:8;stroke-linecap:round;stroke-linejoin:round;stroke-miterlimit:4;stroke-opacity:1;stroke-dasharray:none" />
			<path d="m 110.8919,6 -8.10811,0 -21.62162,71.351353 -43.24325,0" id="path2991" style="fill:none;stroke:#aaa;stroke-width:8;stroke-linecap:round;stroke-linejoin:round;stroke-miterlimit:4;stroke-opacity:1;stroke-dasharray:none" />
			<path d="m 83.86487,82.756763 a 8.10811,8.10811 0 0 1 -16.21622,0 8.10811,8.10811 0 1 1 16.21622,0 z" id="path2995" style="fill:#aaa;fill-opacity:1;fill-rule:evenodd;stroke:#cccccc;stroke-width:4.05405426;stroke-linecap:butt;stroke-linejoin:miter;stroke-miterlimit:4;stroke-opacity:1;stroke-dasharray:none" />
			<path d="m 46.027028,82.756763 a 8.1081081,8.1081081 0 0 1 -16.216216,0 8.1081081,8.1081081 0 1 1 16.216216,0 z" id="path2997" style="fill:#aaa;fill-opacity:1;fill-rule:evenodd;stroke:#cccccc;stroke-width:4.05405426;stroke-linecap:butt;stroke-linejoin:miter;stroke-miterlimit:4;stroke-opacity:1;stroke-dasharray:none" />
		</g>
	</g>
</svg>
